<?xml version="1.0" encoding="utf-8"?>
<!-- Generator: Adobe Illustrator 22.0.1, SVG Export Plug-In . SVG Version: 6.00 Build 0)  -->
<svg version="1.1" id="Capa_1" xmlns="http://www.w3.org/2000/svg" xmlns:xlink="http://www.w3.org/1999/xlink" x="0px" y="0px"
	 viewBox="0 0 300 200" style="enable-background:new 0 0 300 200;" xml:space="preserve">
<style type="text/css">
	.st0{fill:#000000;}
</style>
<path d="M285.7,37.3c-1-4.2-3-8.3-0.9-12.9c0.9-1.9-0.8-3.8-3-4.8c-4.2-1.9-8.3-0.9-12.4,0.2c-10.5,2.8-21,5.7-31.6,8.2
	c-9.5,2.2-19.1,4.2-28.8,5.9c-9.8,1.8-19.6,3.2-29.4,4.7c-0.4,0.1-1-0.2-1.2-0.5c-3.3-3.5-7.5-5.2-12.3-4.6
	c-3.3,0.4-5.4-0.7-7.7-2.3c-0.2-0.1-0.3-0.2-0.5-0.3c-4.7-3.1-11-3.2-15.6,0c-2.5,1.7-4.6,3.7-7,5.6c-0.5,0.4-1.2,0.9-1.8,0.8
	c-11.3-0.5-22.7-0.5-33.9-1.7c-10.6-1.1-21-3.3-31.4-5.5c-13.1-2.8-26.3-5.4-39-9.7c-2.9-1-6.1-1.5-9.2-1.7
	c-6.1-0.2-8.6,3.4-6.6,8.8c0.4,1,0.5,2.2,0.2,3.1c-0.6,2.3-1.4,4.5-2.2,6.8c-1.1,3.2,0,6.6,3.5,8.2c4,1.7,8.2,3.1,12.5,4.1
	c14.5,3.4,28.9,6.9,43.7,9c17,2.3,34,4.1,51.9,2.3c-0.1,1.4,0.2,2.8-0.5,3.7c-3.9,5.6-8.4,11-12.1,16.7c-5.2,8.2-10,16.5-14.5,25
	c-6.7,12.6-11.2,26-16.2,39.2c-0.8,2.1-0.6,4.2,0.2,6.5c1.2,3.3,3.9,5.5,5.8,8.2c4,5.5,7.8,11,12.8,15.7c3,2.8,5.4,6,8.3,8.9
	c0.8,0.8,2.1,1.4,3.3,1.5c1.5,0.1,2.1-1.2,2.5-2.5c0.3-1.2,0.7-2.4,0.9-3.6c1.5-10.5,2.9-21.1,4.4-31.6c1.9-12.9,3.7-25.9,7.9-38.4
	c3.8-11.2,7.4-22.4,11.2-33.5c0.7-2.1,1.8-4,2.8-6c0.8-1.5,2.1-1.4,3.6-0.5c1.6,1,3.5,1.9,5.3,2.4c3.8,1,7.6,0.6,11.2-0.9
	c0.2,0.3,0.4,0.4,0.5,0.5c2.8,7,5.7,13.9,8.2,21c7.3,20.4,10.8,41.6,14,62.8c0.7,4.2,0.9,8.6,1.6,12.8c0.8,5,1.7,10,2.8,14.9
	c0.7,3,2.9,3.3,5.1,1c2-2.1,4-4.3,6.1-6.4c7.2-7.2,13.3-15.2,19.2-23.4c2.1-2.9,3.4-6.1,2-9.7c-3.2-8.3-6.2-16.6-9.6-24.8
	c-4-9.6-8.4-19.2-14.2-28c-2.5-3.8-4.5-7.8-7-11.5c-2.1-3.3-4.5-6.5-6.8-9.6c-2.3-3.1-4.6-6-7.1-9.3c0.8,0,1.4,0,2.1,0
	c22,0,43.8-1.9,65.4-6.2c9.3-1.9,18.5-4,27.7-6.2c3.8-0.9,7.5-2.1,11.1-3.5C285.7,44.4,286.8,42.1,285.7,37.3z"/>
<g>
	<path class="st0" d="M121.7,57.3c0.5,0,1.1-0.7,1.3-1.2c0.9-1.9,1.6-3.9,2.6-5.7c1.7-3,3.7-5.9,5.7-9.1c-0.7,0-1.1-0.1-1.5-0.1
		c-6.8-0.3-13.6-0.3-20.4-0.9c-15.1-1.3-30.1-3.6-44.9-6.9C51.8,30.5,38.9,28,26.7,23.3c-2.1-0.8-4.4-1.2-6.6-1.5
		c-3.8-0.6-5.2,1.2-4.1,4.5c0.7,2.2,1.4,4.5,1.8,6.8c0.4,2-0.2,2.4-2.4,2.1c-0.1,0.5-0.2,1-0.3,1.4c-0.9,5.1-0.5,6,4.8,7.8
		c3.2,1,6.5,1.7,9.8,2.4c13.4,2.7,26.6,5.8,40.1,8c10.7,1.7,21.7,2.5,32.6,3.2C108.7,58.3,115.2,57.6,121.7,57.3z"/>
	<path class="st0" d="M130.1,72.6c-1.1,3.1-2.5,6.2-3.8,9.2c-1.3,3.1-3,6.1-4.1,9.2c-4,11-7.8,22-11.7,33c-1.1,3.1-2.1,6.3-3.1,9.5
		c-0.2,0.5-0.5,1-0.8,1.5c-0.4-0.6-0.5-1-0.4-1.4c1.5-7.9,2.7-15.8,5.5-23.4c3.6-10,7.2-19.9,11.8-29.5c0.5-1.1,0.9-2.2,1.5-3.2
		c1.7-2.8,3.4-5.5,5.1-8.2c-2.1-1.3-3.9-2.4-5.7-3.6c-1.5,2.3-3,4.5-4.4,6.8c-3.2,5.1-6.5,10.2-9.3,15.5
		c-5.5,10.2-11,20.3-15.8,30.8c-4.1,9.2-7.2,18.8-10.8,28.2c-0.9,2.4-0.2,4.6,1.2,6.7c1.4,2.1,3.1,4,4.4,6.1
		c3.5,5.5,7.7,10.5,12.2,15.2c2.6,2.7,5,5.5,7.6,8.4c0.2-0.7,0.4-1.2,0.5-1.7c0.5-3.2,1.1-6.4,1.5-9.6c0.5-4.4,0.7-8.9,1.3-13.4
		c1.4-10.5,2.7-21,4.6-31.4c2.1-11.7,5.2-23.1,9.9-34.2c1.9-4.5,3.5-9.1,5.2-13.7c1.2-3.1,2.3-6.2,3.4-9.4c-0.6-0.1-1.1-0.1-1.5-0.2
		C131.2,69.6,131.2,69.7,130.1,72.6z"/>
	<path class="st0" d="M210,131.9c-4.1-10.7-8.6-21.3-14.2-31.4c-6.1-11.2-12.4-22.2-19.6-32.9c-1.1-1.6-2.4-3.2-3.4-4.6
		c-3,2.4-5.9,4.6-8.6,6.9c-0.3,0.2-0.5,0.9-0.3,1.2c0.7,2.1,1.4,4.2,2.3,6.3c2.1,5.2,4.8,10.3,6.4,15.7c3.8,12.4,8,24.8,10.4,37.5
		c2.7,14.2,3.7,28.6,5.5,43c0.4,3.1,0.8,6.3,1.1,9.4c0.2,0,0.5,0.1,0.7,0.1c0.4-0.5,0.8-1,1.2-1.4c1.5-1.8,3-3.5,4.6-5.2
		c2.5-2.7,5.2-5.2,7.5-8c3.5-4.3,6.7-8.9,10-13.4c2.4-3.3,3.4-6.5,1.5-10.5C212.9,140.5,211.7,136.1,210,131.9z"/>
	<path class="st0" d="M175.7,43.5c-0.6-5.1-3.3-8.1-7.9-8c-2,0-4.1,0.9-6.1,1.7c-1.3,0.5-2.3,1.5-3.7,2.4c-0.4-2.2,1.6-3,2.4-4.4
		c-2.1-1.8-4.5-2.9-7.1-3.8c-3.5-1.2-6.4-0.4-9,1.6c-7.2,5.7-12.9,12.5-17,20.5c-1.5,3-1.6,6.1-0.4,9.1c1,2.5,2.9,4.1,5.8,4.3
		c2.7,0.2,5.3,0.4,8.5,0.6c-1.1-1.4-2.1-2.5-2.8-3.6c-0.3-0.4,0-1.1,0-1.7c0.7,0.1,1.4,0.1,2,0.2c0.3,0.1,0.5,0.5,0.8,0.8
		c1.6,1.8,3.2,3.6,4.8,5.4c1.7,1.8,3.7,2.3,6.2,1.7c3.4-0.8,6.2-2.3,8.8-4.4c2.5-2,4.9-4.1,7.2-6.2C173,55.3,176.4,50.2,175.7,43.5z
		"/>
	<path class="st0" d="M282.1,35.1c-2.6,0.5-3.2,0-2.6-2.5c0.7-2.6,1.8-5.1,2.5-7.7c0.2-0.6-0.1-1.8-0.5-2c-1.3-0.6-2.8-1.3-4.1-1.2
		c-1.8,0.1-3.7,0.7-5.5,1.2c-4.3,1.3-8.4,3.1-12.8,4.1c-12.4,3-24.8,6-37.4,8.5c-8.5,1.7-17.1,2.7-25.8,3.8
		c-5.2,0.7-10.5,1-15.9,1.4c1.4,6.5-1.1,12.3-4.7,18.1c0.7,0.1,1.1,0.1,1.4,0.1c16.4-0.4,32.7-1.3,48.9-3.9
		c11.4-1.8,22.7-4.3,34-6.6c6-1.2,12.1-2.4,17.8-4.3C283.8,42.1,283.8,41.5,282.1,35.1z"/>
</g>
</svg>
